<svg width="50" height="46" viewBox="0 0 50 46" fill="none" xmlns="http://www.w3.org/2000/svg">
<path d="M5 8C5 6.51664 5.43987 5.0666 6.26398 3.83323C7.08809 2.59986 8.25943 1.63856 9.62987 1.07091C11.0003 0.50325 12.5083 0.354725 13.9632 0.644114C15.418 0.933503 16.7544 1.64781 17.8033 2.6967C18.8522 3.7456 19.5665 5.08197 19.8559 6.53683C20.1453 7.99168 19.9968 9.49968 19.4291 10.8701C18.8614 12.2406 17.9001 13.4119 16.6668 14.236C15.4334 15.0601 13.9834 15.5 12.5 15.5C10.5109 15.5 8.60322 14.7098 7.1967 13.3033C5.79018 11.8968 5 9.98913 5 8ZM25 33L15 25.5L0 45.5H50L40 15.5L25 33Z" fill="black"/>
</svg>
